<?xml version="1.0" encoding="utf-8"?>
<!-- Generator: Adobe Illustrator 14.0.0, SVG Export Plug-In . SVG Version: 6.00 Build 43363)  -->
<!DOCTYPE svg PUBLIC "-//W3C//DTD SVG 1.0//EN" "http://www.w3.org/TR/2001/REC-SVG-20010904/DTD/svg10.dtd">
<svg version="1.0" id="Layer_1" xmlns="http://www.w3.org/2000/svg" xmlns:xlink="http://www.w3.org/1999/xlink" x="0px" y="0px"
	 width="100px" height="55.154px" viewBox="0 0 100 55.154" enable-background="new 0 0 100 55.154" xml:space="preserve">
<path d="M77.959,55.154H11.282C5.061,55.154,0,50.093,0,43.873c0-5.278,3.643-9.721,8.546-10.946
	c2.188-5.469,7.248-9.386,13.149-10.089C22.317,10.14,32.843,0,45.693,0c9.417,0,17.822,5.536,21.723,13.756
	c3.203-1.75,6.812-2.682,10.543-2.682c12.153,0,22.041,9.887,22.041,22.04C100,45.267,90.113,55.154,77.959,55.154L77.959,55.154z
	 M11.209,40.372c-1.897,0.039-3.429,1.595-3.429,3.501c0,1.931,1.57,3.501,3.501,3.501h66.678c7.863,0,14.26-6.397,14.26-14.26
	c0-7.863-6.396-14.259-14.26-14.259c-3.683,0-7.18,1.404-9.847,3.952l-5.096,4.871l-1.404-6.908
	C60.083,13.243,53.388,7.78,45.693,7.78c-8.958,0-16.247,7.288-16.247,16.246c0,0.728,0.054,1.483,0.159,2.246l0.73,5.287
	l-5.256-0.923c-0.498-0.087-0.993-0.132-1.474-0.132c-4.002,0-7.479,2.842-8.267,6.757l-0.65,3.227l-3.29-0.106
	C11.336,40.379,11.272,40.375,11.209,40.372L11.209,40.372z"/>
</svg>
